<mxfile host="app.diagrams.net" agent="Mozilla/5.0 (Macintosh; Intel Mac OS X 10_15_7) AppleWebKit/537.36 (KHTML, like Gecko) Chrome/137.0.0.0 Safari/537.36" version="27.1.4">
  <diagram name="Page-1" id="YcLqWKF_rvl-g9Db0AS7">
    <mxGraphModel dx="875" dy="724" grid="1" gridSize="10" guides="1" tooltips="1" connect="1" arrows="1" fold="1" page="1" pageScale="1" pageWidth="850" pageHeight="1100" math="0" shadow="0">
      <root>
        <mxCell id="0" />
        <mxCell id="1" parent="0" />
        <mxCell id="qMX-VjmSBoKmcm4cx1C3-30" value="" style="rounded=0;whiteSpace=wrap;html=1;fillColor=#fff2cc;strokeColor=#d6b656;" parent="1" vertex="1">
          <mxGeometry x="110" y="45" width="270" height="395" as="geometry" />
        </mxCell>
        <mxCell id="qMX-VjmSBoKmcm4cx1C3-27" value="" style="rounded=0;whiteSpace=wrap;html=1;fillColor=#d5e8d4;strokeColor=#82b366;" parent="1" vertex="1">
          <mxGeometry x="153" y="250" width="137" height="140" as="geometry" />
        </mxCell>
        <mxCell id="qMX-VjmSBoKmcm4cx1C3-26" value="" style="rounded=0;whiteSpace=wrap;html=1;fillColor=#dae8fc;strokeColor=#6c8ebf;" parent="1" vertex="1">
          <mxGeometry x="153" y="90" width="137" height="140" as="geometry" />
        </mxCell>
        <mxCell id="qMX-VjmSBoKmcm4cx1C3-1" value="DISTILBERT" style="rounded=0;whiteSpace=wrap;html=1;" parent="1" vertex="1">
          <mxGeometry x="380" y="170" width="90" height="40" as="geometry" />
        </mxCell>
        <mxCell id="qMX-VjmSBoKmcm4cx1C3-2" value="ALBERT" style="rounded=0;whiteSpace=wrap;html=1;" parent="1" vertex="1">
          <mxGeometry x="380" y="210" width="90" height="40" as="geometry" />
        </mxCell>
        <mxCell id="qMX-VjmSBoKmcm4cx1C3-3" value="ROBERTA" style="rounded=0;whiteSpace=wrap;html=1;" parent="1" vertex="1">
          <mxGeometry x="380" y="250" width="90" height="40" as="geometry" />
        </mxCell>
        <mxCell id="qMX-VjmSBoKmcm4cx1C3-4" value="GPT-2" style="rounded=0;whiteSpace=wrap;html=1;" parent="1" vertex="1">
          <mxGeometry x="380" y="290" width="90" height="40" as="geometry" />
        </mxCell>
        <mxCell id="qMX-VjmSBoKmcm4cx1C3-17" value="" style="strokeWidth=2;html=1;shape=mxgraph.flowchart.annotation_2;align=left;labelPosition=right;pointerEvents=1;rotation=-180;" parent="1" vertex="1">
          <mxGeometry x="300" y="160" width="80" height="160" as="geometry" />
        </mxCell>
        <mxCell id="qMX-VjmSBoKmcm4cx1C3-18" value="" style="strokeWidth=2;html=1;shape=mxgraph.flowchart.annotation_2;align=left;labelPosition=right;pointerEvents=1;rotation=-180;" parent="1" vertex="1">
          <mxGeometry x="250" y="285" width="50" height="70" as="geometry" />
        </mxCell>
        <mxCell id="qMX-VjmSBoKmcm4cx1C3-19" value="" style="strokeWidth=2;html=1;shape=mxgraph.flowchart.annotation_2;align=left;labelPosition=right;pointerEvents=1;rotation=-180;" parent="1" vertex="1">
          <mxGeometry x="250" y="110" width="50" height="100" as="geometry" />
        </mxCell>
        <mxCell id="qMX-VjmSBoKmcm4cx1C3-20" value="" style="endArrow=none;html=1;rounded=0;strokeWidth=2;" parent="1" edge="1">
          <mxGeometry width="50" height="50" relative="1" as="geometry">
            <mxPoint x="250" y="160" as="sourcePoint" />
            <mxPoint x="280" y="160" as="targetPoint" />
          </mxGeometry>
        </mxCell>
        <mxCell id="qMX-VjmSBoKmcm4cx1C3-21" value="SEAT" style="text;html=1;align=center;verticalAlign=middle;resizable=0;points=[];autosize=1;strokeColor=none;fillColor=none;" parent="1" vertex="1">
          <mxGeometry x="200" y="98" width="50" height="30" as="geometry" />
        </mxCell>
        <mxCell id="qMX-VjmSBoKmcm4cx1C3-22" value="Stereoset" style="text;html=1;align=center;verticalAlign=middle;resizable=0;points=[];autosize=1;strokeColor=none;fillColor=none;" parent="1" vertex="1">
          <mxGeometry x="185" y="145" width="70" height="30" as="geometry" />
        </mxCell>
        <mxCell id="qMX-VjmSBoKmcm4cx1C3-23" value="Crows-pairs" style="text;html=1;align=center;verticalAlign=middle;resizable=0;points=[];autosize=1;strokeColor=none;fillColor=none;" parent="1" vertex="1">
          <mxGeometry x="169" y="193" width="90" height="30" as="geometry" />
        </mxCell>
        <mxCell id="qMX-VjmSBoKmcm4cx1C3-24" value="Perplexity" style="text;html=1;align=center;verticalAlign=middle;resizable=0;points=[];autosize=1;strokeColor=none;fillColor=none;" parent="1" vertex="1">
          <mxGeometry x="174" y="270" width="80" height="30" as="geometry" />
        </mxCell>
        <mxCell id="qMX-VjmSBoKmcm4cx1C3-25" value="Masked token&lt;br&gt;accuracy" style="text;html=1;align=center;verticalAlign=middle;resizable=0;points=[];autosize=1;strokeColor=none;fillColor=none;" parent="1" vertex="1">
          <mxGeometry x="163" y="333" width="100" height="40" as="geometry" />
        </mxCell>
        <mxCell id="qMX-VjmSBoKmcm4cx1C3-28" value="&lt;font style=&quot;color: rgb(0, 127, 255);&quot;&gt;FAIRNESS&lt;/font&gt;" style="text;html=1;align=center;verticalAlign=middle;whiteSpace=wrap;rounded=0;" parent="1" vertex="1">
          <mxGeometry x="153" y="60" width="60" height="30" as="geometry" />
        </mxCell>
        <mxCell id="qMX-VjmSBoKmcm4cx1C3-29" value="&lt;font style=&quot;color: rgb(0, 204, 0);&quot;&gt;PERFORMANCE&lt;/font&gt;" style="text;html=1;align=center;verticalAlign=middle;whiteSpace=wrap;rounded=0;" parent="1" vertex="1">
          <mxGeometry x="169" y="390" width="60" height="30" as="geometry" />
        </mxCell>
        <mxCell id="qMX-VjmSBoKmcm4cx1C3-31" value="&lt;font style=&quot;color: rgb(255, 181, 112);&quot;&gt;EVALUATION&lt;/font&gt;" style="text;html=1;align=center;verticalAlign=middle;resizable=0;points=[];autosize=1;strokeColor=none;fillColor=none;" parent="1" vertex="1">
          <mxGeometry x="110" y="15" width="100" height="30" as="geometry" />
        </mxCell>
        <mxCell id="qMX-VjmSBoKmcm4cx1C3-32" value="" style="endArrow=classic;html=1;rounded=0;" parent="1" edge="1">
          <mxGeometry width="50" height="50" relative="1" as="geometry">
            <mxPoint x="500" y="248.67000000000002" as="sourcePoint" />
            <mxPoint x="570" y="248.67000000000002" as="targetPoint" />
          </mxGeometry>
        </mxCell>
        <mxCell id="qMX-VjmSBoKmcm4cx1C3-33" value="Debias" style="text;html=1;align=center;verticalAlign=middle;resizable=0;points=[];autosize=1;strokeColor=none;fillColor=none;" parent="1" vertex="1">
          <mxGeometry x="500" y="211.67000000000002" width="60" height="30" as="geometry" />
        </mxCell>
        <mxCell id="qMX-VjmSBoKmcm4cx1C3-34" value="DISTILBERT" style="rounded=0;whiteSpace=wrap;html=1;" parent="1" vertex="1">
          <mxGeometry x="590" y="162.5" width="90" height="40" as="geometry" />
        </mxCell>
        <mxCell id="qMX-VjmSBoKmcm4cx1C3-35" value="ALBERT" style="rounded=0;whiteSpace=wrap;html=1;" parent="1" vertex="1">
          <mxGeometry x="590" y="202.5" width="90" height="40" as="geometry" />
        </mxCell>
        <mxCell id="qMX-VjmSBoKmcm4cx1C3-36" value="ROBERTA" style="rounded=0;whiteSpace=wrap;html=1;" parent="1" vertex="1">
          <mxGeometry x="590" y="242.5" width="90" height="40" as="geometry" />
        </mxCell>
        <mxCell id="qMX-VjmSBoKmcm4cx1C3-37" value="GPT-2" style="rounded=0;whiteSpace=wrap;html=1;" parent="1" vertex="1">
          <mxGeometry x="590" y="282.5" width="90" height="40" as="geometry" />
        </mxCell>
        <mxCell id="qMX-VjmSBoKmcm4cx1C3-38" value="" style="endArrow=classic;html=1;rounded=0;" parent="1" edge="1">
          <mxGeometry width="50" height="50" relative="1" as="geometry">
            <mxPoint x="640" y="340" as="sourcePoint" />
            <mxPoint x="230" y="450" as="targetPoint" />
            <Array as="points">
              <mxPoint x="640" y="480" />
              <mxPoint x="230" y="480" />
            </Array>
          </mxGeometry>
        </mxCell>
      </root>
    </mxGraphModel>
  </diagram>
</mxfile>
